<svg width="38" height="39" viewBox="0 0 38 39" fill="none" xmlns="http://www.w3.org/2000/svg">
<g clip-path="url(#clip0)">
<path d="M6.64256 17.825C8.12091 17.4689 9.20365 17.9716 10.2031 18.9351C12.5352 21.1972 14.9297 23.3964 17.3034 25.6166C17.7823 26.0565 18.0113 26.5591 18.0113 27.2294C17.9905 30.6854 18.0113 34.1413 17.9905 37.5973C17.9905 38.3513 17.6365 38.833 17.0119 38.9587C16.4497 39.0844 15.9916 38.854 15.7626 38.3723C15.596 38.0371 15.5543 37.6182 15.5543 37.2412C15.5335 35.0001 15.5543 32.7799 15.5543 30.5387C15.5543 30.3502 15.5335 30.1408 15.5543 29.9523C15.8875 28.0672 15.1587 26.7267 13.6804 25.5328C11.8064 24.0248 10.099 22.2863 8.37078 20.5898C7.85023 20.0871 7.12146 20.108 6.80913 20.485C6.47598 20.883 6.58009 21.4695 7.12146 21.9721C8.24584 23.0404 9.37023 24.0876 10.4946 25.1558C10.8902 25.5328 11.2442 25.9936 10.9527 26.5382C10.7653 26.8943 10.3489 27.2294 9.97406 27.3551C9.70338 27.4388 9.22447 27.2503 8.97461 27.0409C7.70447 25.8889 6.45516 24.716 5.22667 23.5011C4.39379 22.6843 4.18557 21.6999 4.20639 20.5269C4.24804 18.579 4.03982 16.6521 3.95653 14.7042C3.91489 13.9711 3.85242 13.217 3.81078 12.484C3.78995 12.0022 3.60256 11.6671 3.08201 11.688C2.56146 11.709 2.45735 12.0651 2.45735 12.5049C2.47817 16.2332 2.47817 19.9405 2.51982 23.6687C2.51982 23.941 2.68639 24.2761 2.87379 24.4646C5.37242 26.8314 7.87105 29.1982 10.4113 31.5441C11.1609 32.2144 11.5774 32.9265 11.5149 33.9947C11.4316 35.1676 11.4941 36.3615 11.4941 37.5344C11.4941 38.4351 11.0152 39.0216 10.2864 39.0425C9.57845 39.0634 9.03708 38.456 9.03708 37.5554C9.01626 36.4453 9.01626 35.3143 9.03708 34.2042C9.0579 33.7434 8.89132 33.4292 8.55817 33.1359C5.93461 30.6854 3.29023 28.2348 0.708311 25.7213C0.375161 25.4072 0.125298 24.8207 0.125298 24.3599C0.04201 20.3384 0.0211881 16.3379 0.000366211 12.3164C0.000366211 10.5779 1.37461 9.2165 3.12365 9.19556C4.87269 9.17461 6.2053 10.4942 6.28858 12.2745C6.35105 13.9082 6.45516 15.542 6.55927 17.1757C6.53845 17.3851 6.60091 17.5736 6.64256 17.825Z" fill="#E3A847"/>
<path d="M31.4205 17.8469C31.5246 16.1503 31.6287 14.5166 31.712 12.8829C31.7536 11.8147 31.8786 10.7674 32.7531 10.0134C33.7109 9.15462 34.8353 8.92422 36.0221 9.40596C37.2714 9.90864 37.9794 10.914 38.0002 12.2336C38.021 14.9355 37.9586 17.6584 37.9377 20.3603C37.9169 21.6589 37.8961 22.9366 37.9169 24.2352C37.9169 24.8845 37.7087 25.3662 37.2506 25.8061C34.6271 28.2567 32.0035 30.7282 29.4008 33.1997C29.1717 33.4301 29.0051 33.8071 28.9843 34.1423C28.9427 35.2733 28.9635 36.4253 28.9635 37.5563C28.9635 38.4151 28.4846 38.9597 27.7558 38.9597C27.0479 38.9597 26.569 38.3941 26.569 37.5354C26.569 36.174 26.5898 34.8125 26.5482 33.472C26.5273 32.8227 26.7356 32.341 27.2145 31.9011C29.7339 29.5553 32.2117 27.1675 34.752 24.8216C35.3142 24.298 35.564 23.7744 35.564 22.9994C35.5432 19.5225 35.564 16.0456 35.5849 12.5687C35.5849 12.066 35.4599 11.668 34.8977 11.6471C34.3564 11.6262 34.2106 12.0241 34.1898 12.4849C34.0857 14.1186 33.9816 15.7524 33.8983 17.3861C33.8358 18.6637 33.815 19.9624 33.7942 21.24C33.7734 22.2663 33.2736 23.0204 32.5865 23.6906C31.4621 24.7798 30.2961 25.848 29.1509 26.9162C28.5054 27.5236 27.8391 27.5655 27.2977 27.0209C26.7772 26.5182 26.8188 25.7851 27.4435 25.1777C28.4846 24.1514 29.5673 23.167 30.6293 22.1616C30.7334 22.0569 30.8583 21.9521 30.9624 21.8474C31.4413 21.3657 31.5246 20.8002 31.129 20.4022C30.7334 20.0042 30.192 20.0252 29.6714 20.5069C27.4019 22.6433 25.1114 24.7588 22.8627 26.9162C22.6336 27.1256 22.4879 27.5445 22.4879 27.8796C22.4671 30.8958 22.4671 33.9119 22.4671 36.9489C22.4671 37.284 22.4254 37.5982 22.3838 37.9334C22.3005 38.5827 21.8841 38.8759 21.2802 38.9387C20.6972 38.9806 20.1975 38.6036 20.0517 37.9752C20.0101 37.7658 20.0101 37.5354 20.0101 37.3259C20.0101 33.9747 20.0101 30.6235 19.9893 27.2722C19.9893 26.581 20.1975 26.0574 20.6972 25.5966C23.175 23.2926 25.632 20.9677 28.089 18.6637C29.0051 17.805 30.1087 17.4908 31.4205 17.8469Z" fill="#E3A847"/>
<path d="M19.0102 2.49325C20.0305 1.42505 21.1341 0.629128 22.5291 0.231169C25.7773 -0.711366 29.4628 1.29938 30.4206 4.54589C31.2119 7.20593 30.5664 9.48896 28.6924 11.4159C25.8606 14.3064 22.9664 17.1759 20.093 20.0453C19.2809 20.8622 18.6979 20.8622 17.9067 20.0663C15.0332 17.1549 12.1806 14.2435 9.28639 11.374C6.12146 8.25319 6.8294 3.43579 10.0568 1.15276C12.368 -0.480969 15.7412 -0.355297 17.9067 1.48788C18.2606 1.80206 18.6146 2.13718 19.0102 2.49325ZM18.9894 17.6576C19.1352 17.5319 19.2601 17.4481 19.3642 17.3434C21.9878 14.7043 24.6113 12.0862 27.1932 9.44707C28.7549 7.85523 28.7341 5.44653 27.2141 3.77091C25.7565 2.20002 23.2579 2.03246 21.613 3.43579C21.0508 3.91753 20.551 4.4621 20.0097 4.96479C19.2393 5.69787 18.7187 5.67693 17.9483 4.9229C17.3445 4.35738 16.7823 3.72902 16.1368 3.24728C14.1795 1.76017 11.2853 2.47231 10.1609 4.65061C9.28639 6.36812 9.59872 8.19035 11.0771 9.67746C13.5757 12.2118 16.0743 14.7253 18.5938 17.2387C18.6771 17.4063 18.8436 17.511 18.9894 17.6576Z" fill="#E3A847"/>
</g>
<defs>
<clipPath id="clip0">
<rect width="38" height="39" fill="white"/>
</clipPath>
</defs>
</svg>
