<svg width="58" height="34" viewBox="0 0 58 34" fill="none" xmlns="http://www.w3.org/2000/svg">
<g clip-path="url(#clip0)">
<path d="M38.3014 9.43267C38.2622 14.6619 34.1305 18.8256 29.0394 18.7861C23.7524 18.7467 19.6403 14.6027 19.6795 9.31427C19.7186 4.08502 23.8895 -0.0391852 29.1177 0.000280891C34.248 0.0397469 38.3405 4.22315 38.3014 9.43267ZM29.0981 16.7734C33.1123 16.7734 36.3432 13.4977 36.3432 9.47213C36.3432 5.30846 33.0536 1.93412 29.0394 1.99332C24.8685 2.05252 21.6572 5.34793 21.6768 9.53133C21.6964 13.5766 24.986 16.7734 29.0981 16.7734Z" fill="#E3A847"/>
<path d="M27.8647 20.4043C35.9518 20.4043 41.885 25.5349 42.9228 32.3823C43.0599 33.3492 42.7074 33.9806 41.9829 33.9806C41.278 33.9806 41.0626 33.5662 40.9647 32.9348C40.4947 29.6394 38.9674 26.9557 36.3631 24.9034C29.3921 19.4176 18.8965 23.3643 17.1733 32.106C17.1146 32.4217 17.0363 32.7374 16.9971 33.0729C16.9188 33.7636 16.5076 34.0596 15.8614 33.9609C15.1956 33.8622 15.0194 33.3492 15.1564 32.7966C15.4697 31.4745 15.6656 30.0735 16.2334 28.85C18.7594 23.384 23.1065 20.6214 27.8647 20.4043Z" fill="#E3A847"/>
<path d="M47.4068 22.6338C43.4514 22.693 40.1421 19.3779 40.1225 15.3524C40.1029 11.386 43.3534 8.09061 47.2697 8.05114C51.2056 8.01167 54.5148 11.2282 54.6323 15.1945C54.7498 19.1806 51.4601 22.5746 47.4068 22.6338ZM47.348 20.6605C50.3048 20.6211 52.6742 18.2136 52.6546 15.2734C52.6154 12.3924 50.1482 9.98498 47.2893 10.0442C44.3913 10.1034 42.1002 12.4516 42.1198 15.3326C42.159 18.3123 44.4892 20.6803 47.348 20.6605Z" fill="#E3A847"/>
<path d="M10.7503 22.6329C6.79487 22.7316 3.40729 19.3967 3.34855 15.3317C3.2898 11.4641 6.59906 8.10944 10.5545 8.05024C14.4708 7.97131 17.7604 11.2075 17.8583 15.1936C17.9562 19.1994 14.7645 22.5343 10.7503 22.6329ZM10.6328 20.6399C13.5309 20.6596 15.8806 18.2917 15.8806 15.3317C15.861 12.431 13.5504 10.0433 10.7111 10.0433C7.73477 10.0433 5.32627 12.431 5.32627 15.3515C5.34585 18.2325 7.73477 20.6202 10.6328 20.6399Z" fill="#E3A847"/>
<path d="M16.0371 25.4352C16.0763 26.4614 15.5476 26.8955 14.8035 26.6784C14.314 26.5403 13.844 26.3035 13.3545 26.1259C8.4983 24.5078 3.36798 27.3691 2.17352 32.3615C2.11477 32.6181 2.03645 32.8746 1.9777 33.1114C1.82105 33.7626 1.40984 34.0783 0.76366 33.9204C0.117475 33.7626 -0.0783387 33.2495 0.0391494 32.6181C0.372033 30.9013 1.0378 29.3029 2.09519 27.9216C5.18905 23.8763 10.5739 22.5345 15.1951 24.7051C15.5672 24.8827 15.8609 25.2774 16.0371 25.4352Z" fill="#E3A847"/>
<path d="M46.9761 23.4824C52.3413 23.4824 56.9821 27.3501 57.9612 32.6385C58.0787 33.2305 57.9416 33.8028 57.2758 33.9607C56.5709 34.1185 56.2185 33.6844 55.9835 33.0727C55.4939 31.8098 55.1415 30.4482 54.3974 29.3431C52.1847 25.9688 47.4852 24.7453 43.843 26.4226C43.7255 26.4818 43.6081 26.541 43.4906 26.6002C42.8836 26.8765 42.2765 26.8568 42.0024 26.1858C41.7478 25.5741 42.0416 24.9821 42.6877 24.7848C44.1172 24.2915 45.5466 23.8968 46.9761 23.4824Z" fill="#E3A847"/>
</g>
<defs>
<clipPath id="clip0">
<rect width="58" height="34" fill="white"/>
</clipPath>
</defs>
</svg>
