<svg width="28" height="28" viewBox="0 0 28 28" fill="none" xmlns="http://www.w3.org/2000/svg">
<path d="M20.6168 0H7.3832C3.32303 0 0 3.39323 0 7.53531V20.4647C0 24.6068 3.32303 28 7.3832 28H20.6168C24.677 28 28 24.6068 28 20.4647V7.53531C28 3.39323 24.677 0 20.6168 0ZM25.496 20.2775C25.496 23.1442 23.2027 25.496 20.3828 25.496H7.61722C4.80903 25.496 2.50397 23.1442 2.50397 20.2775V7.72252C2.50397 4.85583 4.79733 2.50397 7.61722 2.50397H20.3828C23.191 2.50397 25.496 4.85583 25.496 7.72252V20.2775Z" fill="#1E2023"/>
<path d="M13.9941 6.80859C10.1095 6.80859 6.95027 10.0263 6.95027 13.9929C6.95027 17.9595 10.0978 21.1772 13.9941 21.1772C17.8905 21.1772 21.038 17.9595 21.038 13.9929C21.038 10.0263 17.8788 6.80859 13.9941 6.80859ZM13.9941 18.6381C11.4902 18.6381 9.45424 16.5671 9.45424 14.0046C9.45424 11.4421 11.4902 9.37107 13.9941 9.37107C16.4981 9.37107 18.5341 11.4421 18.5341 14.0046C18.5341 16.5554 16.5098 18.6381 13.9941 18.6381Z" fill="#1E2023"/>
<path d="M21.4125 8.0497C22.2913 8.0497 23.0038 7.32153 23.0038 6.42329C23.0038 5.52504 22.2913 4.79688 21.4125 4.79688C20.5336 4.79688 19.8212 5.52504 19.8212 6.42329C19.8212 7.32153 20.5336 8.0497 21.4125 8.0497Z" fill="#1E2023"/>
</svg>
