<svg width="25" height="25" viewBox="0 0 25 25" fill="none" xmlns="http://www.w3.org/2000/svg">
<path fill-rule="evenodd" clip-rule="evenodd" d="M9.8542 19.5278C4.41188 19.5278 0 15.1564 0 9.7639C0 4.37145 4.41188 0 9.8542 0C15.2965 0 19.7084 4.37145 19.7084 9.7639C19.7084 12.0204 18.9359 14.0981 17.6385 15.7516L24.2748 22.327L22.5328 24.0531L15.8964 17.4775C14.2278 18.7626 12.1312 19.5278 9.8542 19.5278ZM17.2445 9.76397C17.2445 13.8084 13.9356 17.087 9.85386 17.087C5.77212 17.087 2.46322 13.8084 2.46322 9.76397C2.46322 5.71959 5.77212 2.44096 9.85386 2.44096C13.9356 2.44096 17.2445 5.71959 17.2445 9.76397Z" fill="#1E2023"/>
</svg>
