<svg width="32" height="27" viewBox="0 0 32 27" fill="none" xmlns="http://www.w3.org/2000/svg">
<g clip-path="url(#clip0)">
<path d="M30.7525 0.495129C29.4989 1.26877 28.1093 1.84126 26.629 2.15072C25.4509 0.820057 23.7592 0 21.9014 0C18.3216 0 15.4065 3.04814 15.4065 6.80802C15.4065 7.34957 15.4669 7.86017 15.5726 8.3553C10.1804 8.07679 5.40737 5.36905 2.20524 1.23782C1.64638 2.24355 1.32919 3.41948 1.32919 4.67278C1.32919 7.04011 2.47712 9.12894 4.21412 10.3513C3.15682 10.3203 2.14482 10.0109 1.26877 9.50028V9.57765C1.26877 12.8733 3.50422 15.643 6.47978 16.2619C5.93602 16.4166 5.36205 16.5094 4.77298 16.5094C4.35006 16.5094 3.94224 16.463 3.54953 16.3857C4.38027 19.0934 6.76676 21.0584 9.60639 21.1203C7.38604 22.9461 4.59173 24.0447 1.54065 24.0447C1.01199 24.0447 0.498445 24.0137 0 23.9519C2.86983 25.886 6.28342 27.0155 9.95379 27.0155C21.8862 27.0155 28.4113 16.6332 28.4113 7.62808C28.4113 7.3341 28.4113 7.04011 28.3962 6.74613C29.665 5.78682 30.7676 4.57994 31.6286 3.21834C30.4655 3.75988 29.2119 4.13123 27.8978 4.28596C29.2421 3.41948 30.2692 2.08882 30.7525 0.495129Z" fill="#1E2023"/>
</g>
<defs>
<clipPath id="clip0">
<rect width="31.6286" height="27" fill="white"/>
</clipPath>
</defs>
</svg>
