<svg width="120" height="28" viewBox="0 0 120 28" fill="none" xmlns="http://www.w3.org/2000/svg">
<g clip-path="url(#clip0)">
<path d="M53.0989 2.52539H47.9202V7.57724H53.0989V2.52539Z" fill="#1E2023"/>
<path d="M53.0989 8.88672H47.9202V26.7978H53.0989V8.88672Z" fill="#1E2023"/>
<path d="M12.4245 8.86328L8.89053 20.7122L5.22319 8.88624L0 8.90921L6.1567 26.7974H11.7355L17.5588 8.86328H12.4245Z" fill="#1E2023"/>
<path d="M68.9685 13.2497V12.9512V8.88672H54.588V13.2497H62.8784L54.588 22.5038V26.7978H69.5463V22.5038H61.0781L68.9685 13.2497Z" fill="#1E2023"/>
<path d="M40.6522 11.6652V8.88672H35.5846V26.7978H40.6522V18.7608C40.8078 14.1452 44.564 13.7319 44.564 13.7319H46.2977V8.88672C46.2977 8.88672 44.7196 8.88672 44.4307 8.88672C42.8081 8.88672 41.2968 10.7697 40.6522 11.6652Z" fill="#1E2023"/>
<path d="M25.4936 8.26562C20.6483 8.26562 16.7365 12.5827 16.7365 17.9101C16.7365 23.2375 20.6483 27.5545 25.4936 27.5545C29.161 27.5545 32.7616 25.0975 34.0508 21.5841L29.1832 21.5612C28.4275 22.8012 27.2051 23.6049 25.3603 23.513C23.5377 23.4212 22.0041 21.7219 21.5596 19.3338H28.5164H29.9833H34.1397C34.2064 18.8745 34.2286 18.3923 34.2286 17.9101C34.2508 12.5827 30.339 8.26562 25.4936 8.26562ZM21.7374 15.7745C22.3153 13.7308 23.7155 12.3071 25.3603 12.3071C27.005 12.3071 28.4053 13.7308 28.9832 15.7745H21.7374Z" fill="#1E2023"/>
<path d="M78.7922 8.26562C73.6135 8.26562 69.4127 12.5827 69.4127 17.9101C69.4127 23.2375 73.6135 27.5545 78.7922 27.5545C83.971 27.5545 88.1718 23.2375 88.1718 17.9101C88.1718 12.5827 83.971 8.26562 78.7922 8.26562ZM78.8589 23.4671C76.6807 23.4671 74.9249 20.9871 74.9249 17.933C74.9249 14.879 76.6807 12.399 78.8589 12.399C81.0371 12.399 82.793 14.879 82.793 17.933C82.7708 20.9871 81.0149 23.4671 78.8589 23.4671Z" fill="#1E2023"/>
<path d="M105.708 15.0403C105.686 9.3455 101.441 7.85291 98.2848 8.61069C96.4178 9.04699 95.062 10.4477 94.4174 11.2285V8.88624H89.3943V26.7974H94.4174V15.9359C95.5065 12.6522 97.8181 12.4685 99.2183 13.364C100.463 14.1448 100.663 15.9359 100.663 15.9359V26.7974H105.708V15.0403Z" fill="#1E2023"/>
<path d="M105.709 8.88667L109.776 17.9111H111.999L120 0H117.311L110.821 14.3978L108.487 8.88667H105.709Z" fill="#CA332B"/>
</g>
<defs>
<clipPath id="clip0">
<rect width="120" height="27.5556" fill="white"/>
</clipPath>
</defs>
</svg>
