<svg width="89" height="29" viewBox="0 0 89 29" fill="none" xmlns="http://www.w3.org/2000/svg">
<path d="M27.7895 13.4214H26.2982C25.9254 13.4214 25.6191 13.1151 25.6191 12.7423V11.2377C25.6191 10.8648 25.9254 10.5586 26.2982 10.5586H27.7895C28.1624 10.5586 28.4686 10.8648 28.4686 11.2377V12.729C28.4686 13.1151 28.1624 13.4214 27.7895 13.4214Z" fill="#1E2023"/>
<path d="M27.7895 27.7362H26.2982C25.9254 27.7362 25.6191 27.43 25.6191 27.0571V25.5658C25.6191 25.193 25.9254 24.8867 26.2982 24.8867H27.7895C28.1624 24.8867 28.4686 25.193 28.4686 25.5658V27.0571C28.4686 27.43 28.1624 27.7362 27.7895 27.7362Z" fill="#1E2023"/>
<path d="M31.3578 24.1538H29.8665C29.4936 24.1538 29.1874 23.8476 29.1874 23.4747V21.9701C29.1874 21.5973 29.4936 21.291 29.8665 21.291H31.3578C31.7306 21.291 32.0369 21.5973 32.0369 21.9701V23.4614C32.0502 23.8476 31.7439 24.1538 31.3578 24.1538Z" fill="#1E2023"/>
<path d="M31.3578 16.9901H29.8665C29.4936 16.9901 29.1874 16.6839 29.1874 16.311V14.8197C29.1874 14.4469 29.4936 14.1406 29.8665 14.1406H31.3578C31.7306 14.1406 32.0369 14.4469 32.0369 14.8197V16.311C32.0502 16.6839 31.7439 16.9901 31.3578 16.9901Z" fill="#1E2023"/>
<path d="M34.9394 20.5721H33.4481C33.0753 20.5721 32.769 20.2659 32.769 19.8931V18.4017C32.769 18.0289 33.0753 17.7227 33.4481 17.7227H34.9394C35.3123 17.7227 35.6185 18.0289 35.6185 18.4017V19.8931C35.6185 20.2659 35.3123 20.5721 34.9394 20.5721Z" fill="#1E2023"/>
<path d="M38.521 24.1538H37.0164C36.6435 24.1538 36.3373 23.8476 36.3373 23.4747V21.9701C36.3373 21.5973 36.6435 21.291 37.0164 21.291H38.5077C38.8805 21.291 39.1868 21.5973 39.1868 21.9701V23.4614C39.2001 23.8476 38.8938 24.1538 38.521 24.1538Z" fill="#1E2023"/>
<path d="M38.521 16.9901H37.0164C36.6435 16.9901 36.3373 16.6839 36.3373 16.311V14.8197C36.3373 14.4469 36.6435 14.1406 37.0164 14.1406H38.5077C38.8805 14.1406 39.1868 14.4469 39.1868 14.8197V16.311C39.2001 16.6839 38.8938 16.9901 38.521 16.9901Z" fill="#1E2023"/>
<path d="M42.0906 27.7362H40.5993C40.2264 27.7362 39.9202 27.43 39.9202 27.0571V25.5658C39.9202 25.193 40.2264 24.8867 40.5993 24.8867H42.0906C42.4634 24.8867 42.7697 25.193 42.7697 25.5658V27.0571C42.783 27.43 42.4767 27.7362 42.0906 27.7362Z" fill="#1E2023"/>
<path d="M42.7828 11.2377V12.729C42.7828 13.1018 42.4766 13.4081 42.1038 13.4081H40.6124C40.2396 13.4081 39.9333 13.1018 39.9333 12.729V11.2377C39.9333 10.8648 40.2396 10.5586 40.6124 10.5586H42.1038C42.4766 10.5586 42.7828 10.8648 42.7828 11.2377Z" fill="#1E2023"/>
<path d="M0.0798922 25.3395C0.252992 25.0865 0.54593 24.5007 0.665768 24.2876C0.878814 23.9547 1.33154 23.8748 1.79757 24.1678C1.79757 24.1678 3.59515 25.6325 5.72561 25.6325C7.44329 25.6325 8.44194 24.7537 8.44194 23.6218C8.44194 22.1572 7.1903 21.4914 4.75359 20.2797C2.55655 19.1878 0 17.7231 0 14.8737C0 13.116 1.42474 10.5195 5.31283 10.5195C7.48323 10.5195 9.16097 11.2785 9.95989 11.8111C10.3327 12.0641 10.4659 12.65 10.2129 13.1027L9.88 13.7685C9.62701 14.2345 9.04113 14.3544 8.6683 14.1413C8.6683 14.1413 6.87073 13.1427 5.32615 13.1427C3.43536 13.156 2.92938 14.1147 2.92938 14.8337C2.92938 16.2185 4.31418 16.8443 6.03186 17.6832C8.92129 19.068 11.5178 20.3596 11.5178 23.3689C11.5178 25.7923 9.17429 28.0958 5.73892 28.0958C2.92938 28.0958 1.22501 26.9241 0.306253 26.2183C0.0798922 26.0452 -0.0399461 25.6325 0.0798922 25.3395Z" fill="#1E2023"/>
<path d="M65.5245 10.5195C68.0411 10.5195 69.9984 11.5182 71.5031 13.4489C71.796 13.8217 71.7161 14.3277 71.33 14.6207L70.5311 15.2864C69.9052 15.8723 69.6922 15.4595 69.3194 15.1133C68.4805 14.1546 67.0957 13.3557 65.4712 13.3557C62.3288 13.3557 59.9054 15.9522 59.9054 19.2944C59.9054 22.6365 62.2888 25.3129 65.4313 25.3129C67.9479 25.3129 68.9066 24.0613 69.8653 23.1425C70.3713 22.6365 70.6642 22.7297 71.1169 23.0626L71.583 23.3955C71.9957 23.6884 72.1289 24.1545 71.8759 24.5672C70.6243 26.5779 68.3207 28.0825 65.4712 28.0825C60.8242 28.0825 56.8961 24.3542 56.8961 19.3343C56.9094 14.4076 60.9706 10.5195 65.5245 10.5195Z" fill="#1E2023"/>
<path d="M74.0206 0.798922C74.0206 0.386146 74.3935 0 74.8196 0H76.1112C76.5239 0 76.9101 0.37283 76.9101 0.798922V12.7961C76.9101 12.7961 79.1337 10.5724 82.5158 10.5724C86.6569 10.5724 89.0004 13.2088 89.0004 18.1089V26.937C89.0004 27.3498 88.6276 27.7359 88.2015 27.7359H86.8567C86.4439 27.7359 86.0577 27.3631 86.0577 26.937V18.1089C86.0577 14.9265 84.633 13.3819 82.2895 13.3819C79.1071 13.3819 76.8968 15.7254 76.8968 15.7254V26.937C76.8968 27.3498 76.5239 27.7359 76.0978 27.7359H74.8062C74.3935 27.7359 74.0073 27.3631 74.0073 26.937V0.798922H74.0206Z" fill="#1E2023"/>
<path d="M19.2003 10.5596V6.09899C19.2003 5.64627 18.8275 5.27344 18.3747 5.27344H17.1764C16.7236 5.27344 16.3508 5.64627 16.3508 6.09899V10.5463H13.1951C12.7423 10.5463 12.3695 10.9192 12.3695 11.3719V12.5703C12.3695 13.023 12.7423 13.3958 13.1951 13.3958H16.3242V22.9962C16.3242 25.606 18.4413 27.7098 21.0378 27.7098H22.3028C22.7555 27.7098 23.1283 27.337 23.1283 26.8843V25.6859C23.1283 25.2332 22.7555 24.8603 22.3028 24.8603H21.0378C20.0125 24.8603 19.187 24.0348 19.187 23.0095V13.4091V10.5596H19.2003Z" fill="#1E2023"/>
<path d="M22.4636 13.4214H20.9723C20.5995 13.4214 20.2932 13.1151 20.2932 12.7423V11.2377C20.2932 10.8648 20.5995 10.5586 20.9723 10.5586H22.4636C22.8364 10.5586 23.1427 10.8648 23.1427 11.2377V12.729C23.1427 13.1151 22.8364 13.4214 22.4636 13.4214Z" fill="#1E2023"/>
<path d="M52.0634 10.5596V6.09899C52.0634 5.64627 51.6906 5.27344 51.2379 5.27344H50.0395C49.5868 5.27344 49.214 5.64627 49.214 6.09899V10.5463H46.0715C45.6188 10.5463 45.246 10.9192 45.246 11.3719V12.5703C45.246 13.023 45.6188 13.3958 46.0715 13.3958H49.2006V22.9962C49.2006 25.606 51.3178 27.7098 53.9143 27.7098H55.1792C55.632 27.7098 56.0048 27.337 56.0048 26.8843V25.6859C56.0048 25.2332 55.632 24.8603 55.1792 24.8603H53.9143C52.889 24.8603 52.0634 24.0348 52.0634 23.0095V13.4091V10.5596Z" fill="#1E2023"/>
<path d="M55.3256 13.4214H53.8342C53.4614 13.4214 53.1552 13.1151 53.1552 12.7423V11.2377C53.1552 10.8648 53.4614 10.5586 53.8342 10.5586H55.3256C55.6984 10.5586 56.0046 10.8648 56.0046 11.2377V12.729C56.018 13.1151 55.7117 13.4214 55.3256 13.4214Z" fill="#1E2023"/>
</svg>
